<svg width="224" height="60" fill="none" xmlns="http://www.w3.org/2000/svg"><path d="M82.888 15.732H68.096v22.813h5.865V20.458h8.927v-4.726zm6.908 19.228c-3.356 0-4.366-.945-4.594-3.26h11.143v-1.27c0-5.703-2.183-8.571-8.015-8.571-5.898 0-8.57 2.933-8.57 8.571 0 5.964 2.835 8.571 9.221 8.571 2.216 0 4.594-.293 7.136-.88l-.75-3.976c-1.792.554-3.649.815-5.571.815zm-1.466-9.353c1.89 0 2.867.912 2.932 2.737h-5.963c.196-1.825 1.206-2.737 3.03-2.737zm25.838-3.292h-5.213v5.932h-4.758v-5.932h-5.213v16.23h5.213v-6.258h4.758v6.258h5.213v-16.23zm12.674 12.645c-3.355 0-4.366-.945-4.594-3.26h11.144v-1.27c0-5.703-2.183-8.571-8.016-8.571-5.897 0-8.569 2.933-8.569 8.571 0 5.964 2.835 8.571 9.221 8.571 2.216 0 4.594-.293 7.136-.88l-.75-3.976c-1.792.554-3.649.815-5.572.815zm-1.466-9.353c1.89 0 2.868.912 2.933 2.737h-5.963c.196-1.825 1.206-2.737 3.03-2.737zm15.868 12.09c1.01.49 1.825.815 2.476 1.01.652.196 1.402.294 2.249.294 4.301 0 6.353-2.607 6.353-8.571 0-5.964-2.052-8.571-6.353-8.571-1.369 0-2.998.456-4.92 1.401v-.945h-5.018v22.748h5.213v-7.366zm0-10.917c1.173-.587 2.118-.88 2.867-.88 1.923 0 2.835 1.239 2.835 4.53 0 3.292-.912 4.53-2.835 4.53-.749 0-1.694-.293-2.867-.88v-7.3zm13.033 7.007c0 3.291 1.629 5.214 4.888 5.214 1.466 0 2.965-.423 4.561-1.238v.782h5.018V27.953c0-3.91-1.89-6.094-7.103-6.094-1.531 0-3.649.326-6.354.978l.717 4.204c2.151-.75 3.845-1.141 5.116-1.141 1.727 0 2.411.554 2.411 2.118v.717c-1.271-.13-2.248-.195-2.933-.195-4.529 0-6.321 1.89-6.321 5.247zm7.136-1.76c.489 0 1.206.065 2.118.195v2.64c-.88.424-1.662.652-2.346.652-1.141 0-1.694-.587-1.694-1.727 0-1.173.651-1.76 1.922-1.76zm10.524 6.518h12.48l.293 4.563h4.464v-8.604h-1.988V22.315h-5.213v12.189h-4.823V22.315h-5.213v16.23zm29.52-16.23l-3.323 5.41c-.456.75-1.043 1.825-1.76 3.226.033-.88.066-2.085.066-3.584v-5.052h-5.214v16.23h5.214l3.323-5.41c.456-.75 1.043-1.825 1.759-3.226-.032.88-.065 2.085-.065 3.584v5.052h5.214v-16.23h-5.214zm15.542 6.877c-1.596 0-2.378-.587-2.378-1.793s.782-1.792 2.378-1.792c.424 0 1.01.065 1.695.195v3.39h-1.695zm6.908 9.353V22.706c-3.03-.554-5.442-.847-7.234-.847-5.115 0-7.428 2.15-7.428 5.638 0 2.249.945 3.846 2.802 4.758l-3.324 5.899 5.67.619 2.932-5.931h1.369v5.703h5.213z" fill="#77B946"/><path fill-rule="evenodd" clip-rule="evenodd" d="M25.545 50.182c1.686-2.258 3.21-4.412 4.858-6.465 1.134-1.41 2.523-2.618 3.656-4.03 2.771-3.453 5.759-6.753 7.782-10.756 1.748-3.455 2.67-7.08 2.166-10.928a15.484 15.484 0 00-2.651-6.866c-.266-.378-1.315-.504-1.88-.337-4.8 1.416-8.2 4.512-10.419 8.932-.345.687-.559 1.438-.833 2.16-.305.8-.105 1.044.805.946 1.62-.172 3.254-.225 4.884-.252.384-.007.77.292 1.157.451-.285.285-.595.55-.853.858-.924 1.099-1.927 2.15-2.727 3.334-2.877 4.254-5.133 8.807-6.423 13.803-.162.625-.452 1.22-.845 1.793-.147-5.194-.25-10.368 2.23-15.454H20.83c.222-1.395.286-2.576.611-3.68.566-1.917 1.102-3.883 1.994-5.657 2.09-4.16 5.077-7.598 9.526-9.317 3.68-1.42 7.514-1.411 11.221.1 4.365 1.78 7.54 4.884 9.627 9.065 1.789 3.58 2.741 7.396 2.724 11.403-.025 6.003-1.59 11.582-5.278 16.38-3.33 4.333-7.616 7.42-12.932 9.044-2.657.812-5.35 1.35-8.1 1.268-8.14-.241-14.854-3.505-20.02-9.802-2.576-3.139-4.364-6.7-5.204-10.674-.78-3.688-.798-7.38-.268-11.144.526-3.735 1.726-7.164 3.745-10.283C12.21 8.307 17.671 4.87 24.17 2.875c4.918-1.51 9.925-1.846 15.015-1.38.143.013.29-.019.5-.288C38.7.958 37.728.596 36.73.485 34.59.247 32.428-.07 30.29.013 20.285.398 12.13 4.511 5.946 12.383 3.303 15.75 1.594 19.573.685 23.75c-1.162 5.34-.862 10.607 1.027 15.718 1.62 4.378 3.994 8.343 7.334 11.673 4.133 4.12 9.045 6.89 14.786 8.009 2.635.512 5.362.927 8.028.832 4.81-.172 9.367-1.457 13.582-3.945 4.936-2.913 8.804-6.77 11.59-11.77 1.357-2.436 2.413-4.993 3.045-7.663.76-3.206.932-6.483.64-9.814-.348-3.953-1.47-7.611-3.417-11.028-2.75-4.83-6.761-8.198-12.066-9.983-2.583-.869-5.245-1.437-7.976-1.31-9.741.454-18.407 5.573-21.816 15.483-1.323 3.847-1.552 7.823-.691 11.92.96 4.57 2.855 8.638 5.469 12.444 1.545 2.251 3.441 4.167 5.325 5.866z" fill="#77B946"/><path d="M43.224 7.863c-3.707-1.511-7.541-1.52-11.22-.1-4.45 1.719-7.438 5.158-9.528 9.317-.89 1.774-1.427 3.74-1.993 5.658-.325 1.103-1.398 4.248.347 4.637.053-.33.096-.648.137-.957v-.002c.036-.278.07-.547.106-.811.023-.173.048-.344.073-.512l.016-.107a12.98 12.98 0 01.136-.719c.041-.185.086-.369.138-.548.002-.008.003-.016.006-.023.565-1.917 1.102-3.883 1.993-5.658 2.09-4.159 5.077-7.598 9.526-9.317 1.84-.71 3.72-1.063 5.6-1.05 1.883.014 3.768.395 5.621 1.15.072.03.142.062.213.093.192.08.384.161.57.247.167.077.33.16.493.24.087.044.177.084.263.128.197.101.389.209.58.316.048.027.097.05.144.078.212.121.42.248.626.377l.07.043c.22.14.435.284.648.432l.021.015c.66.461 1.282.965 1.867 1.507-1.758-1.897-3.9-3.393-6.453-4.434z" fill="url(#paint0_linear_514_588)"/><path d="M163.014 13.835h2.658v.635h-2.079v4.715h-.579v-5.35zm3.267 5.35V13.84h1.652c.388 0 .675.034.86.102.253.092.455.264.605.514.151.25.226.558.226.923 0 .481-.122.874-.368 1.178-.245.304-.67.456-1.272.456h-1.124v2.173h-.579zm.579-2.804h1.134c.358 0 .619-.08.784-.24.166-.164.248-.408.248-.734a1.11 1.11 0 00-.124-.543.676.676 0 00-.295-.31c-.114-.056-.322-.084-.623-.084h-1.124v1.91zm3.06-2.542h.583l1.433 3.275 1.247-3.275h.58l-1.645 4.158c-.211.53-.384.872-.517 1.028a.675.675 0 01-.544.233c-.158 0-.345-.042-.561-.127v-.606a.84.84 0 00.492.164.484.484 0 00.368-.164c.102-.11.215-.362.339-.758l-1.775-3.928zm4.933 5.346h-.583V13.84h3.442v5.346h-.58v-4.719h-2.279v4.72zm4.419 0h-.583V13.84h3.442v5.346h-.58v-4.719h-2.279v4.72zm3.337 0l1.684-5.346h.624l1.794 5.346h-.664l-.51-1.619h-1.831l-.481 1.62h-.616zm1.265-2.195h1.484l-.456-1.48a16.5 16.5 0 01-.31-1.11 7.99 7.99 0 01-.237 1.022l-.481 1.568zm5.014-3.151h.579v2.341c.268 0 .454-.062.558-.186.107-.124.246-.425.416-.904.129-.372.236-.634.321-.784a.936.936 0 01.346-.35c.146-.085.342-.128.587-.128.071 0 .143.004.215.01v.617l-.116-.003-.131-.004a.506.506 0 00-.376.138c-.092.09-.204.332-.336.726-.143.44-.266.722-.368.846a1.09 1.09 0 01-.372.292c.285.095.564.413.839.956l.901 1.78h-.719l-.733-1.452c-.231-.46-.415-.75-.554-.872-.138-.121-.278-.182-.419-.182a.555.555 0 00-.059.003v2.502h-.579V13.84zm3.394 2.742c0-.911.201-1.612.602-2.1.401-.491.901-.737 1.499-.737.386 0 .739.11 1.057.328.318.22.57.538.755.956.187.416.281.912.281 1.488 0 .792-.18 1.438-.54 1.936-.396.55-.915.825-1.557.825-.647 0-1.167-.282-1.561-.847-.357-.51-.536-1.127-.536-1.849zm.598.011c0 .66.145 1.171.434 1.536.292.362.646.543 1.061.543.426 0 .782-.183 1.069-.55.289-.368.434-.907.434-1.62 0-.46-.075-.87-.223-1.233a1.498 1.498 0 00-.518-.663 1.239 1.239 0 00-.751-.252c-.437 0-.798.182-1.083.547-.282.365-.423.929-.423 1.692zm4.318 2.593V13.84h.871l1.039 3.786.208.79c.051-.196.129-.482.233-.856l1.051-3.72h.78v5.346h-.558v-4.474l-1.276 4.474h-.522l-1.269-4.551v4.551h-.557zm5.724 0h-.583V13.84h3.442v5.346h-.58v-4.719h-2.279v4.72zm3.337 0l1.684-5.346h.624l1.794 5.346h-.664l-.51-1.619h-1.831l-.481 1.62h-.616zm1.265-2.195h1.484l-.456-1.48a16.5 16.5 0 01-.31-1.11 7.99 7.99 0 01-.237 1.022l-.481 1.568zm3.296 2.195V13.84h.58v2.195h2.279V13.84h.58v5.346h-.58v-2.52H211.4v2.52h-.58zm4.43-5.346h.525v4.234l2.334-4.234h.583v5.346h-.525v-4.223l-2.337 4.223h-.58V13.84zm4.405 0h.525v4.234l2.334-4.234h.583v5.346h-.525v-4.223l-2.337 4.223h-.58V13.84zm2.323-1.306h.368c-.032.314-.126.55-.284.708a.816.816 0 01-.602.237.816.816 0 01-.602-.237c-.155-.158-.249-.394-.28-.708h.368c.056.328.222.493.499.493.156 0 .276-.04.361-.117.085-.078.143-.203.172-.376z" fill="#fff"/><defs><linearGradient id="paint0_linear_514_588" x1="34.768" y1="6.713" x2="34.768" y2="27.375" gradientUnits="userSpaceOnUse"><stop stop-color="#6FBD85"/><stop offset=".502" stop-color="#009847"/><stop offset="1" stop-color="#008945"/></linearGradient></defs></svg>