<svg width="32" height="32" fill="none" xmlns="http://www.w3.org/2000/svg"><path fill-rule="evenodd" clip-rule="evenodd" d="M8 0a8 8 0 00-8 8v16a8 8 0 008 8h16a8 8 0 008-8V8a8 8 0 00-8-8H8zm3.245 11.618c0 2.544 2.153 4.695 4.742 4.695h.016a4.714 4.714 0 004.727-4.695c0-2.634-2.063-4.785-4.742-4.785-2.59 0-4.743 2.152-4.743 4.785zm2.812 0c0-1.098.834-2.019 1.93-2.019 1.142 0 1.934.92 1.933 2.02 0 1.096-.79 1.93-1.932 1.93-1.097 0-1.931-.834-1.931-1.93zm6.498 11.191l-2.678-2.588c1.01-.308 1.976-.703 2.81-1.23.614-.352.791-1.228.395-1.887-.395-.658-1.228-.833-1.931-.394a6.068 6.068 0 01-6.323 0c-.703-.44-1.493-.264-1.932.394-.351.659-.22 1.536.44 1.887.88.524 1.824.936 2.807 1.228l-2.723 2.59c-.527.57-.527 1.404 0 1.93.308.263.66.395.967.395.396 0 .748-.131 1.01-.394l2.591-2.634 2.679 2.634c.439.569 1.318.569 1.888 0 .527-.527.527-1.362 0-1.93z" fill="#77B946"/></svg>