<svg width="13" height="16" fill="none" xmlns="http://www.w3.org/2000/svg"><path fill-rule="evenodd" clip-rule="evenodd" d="M5.966 15.919l.256-.363-.256.363zm.512 0h.002l.005-.004.013-.01.052-.038c.045-.033.11-.08.191-.144a19.29 19.29 0 002.706-2.565c1.47-1.7 2.998-4.127 2.998-6.902a6.274 6.274 0 00-1.822-4.422A6.205 6.205 0 003.84.477a6.205 6.205 0 00-2.02 1.356A6.274 6.274 0 000 6.257c0 2.774 1.527 5.201 2.997 6.902a19.29 19.29 0 002.706 2.564c.08.062.161.123.243.182l.015.01.004.003.001.001a.445.445 0 00.512 0zm-.256-.363l.256.363-.256-.363zm2.223-9.334a2.222 2.222 0 11-4.445 0 2.222 2.222 0 014.445 0z" fill="#77B946"/></svg>