<svg width="10" height="6" viewBox="0 0 10 6" fill="none" xmlns="http://www.w3.org/2000/svg">
<path d="M4.99985 3.90001L8.07785 1.07311C8.19497 0.957143 8.35313 0.89209 8.51795 0.89209C8.68277 0.89209 8.84093 0.957143 8.95805 1.07311C9.01587 1.13006 9.06179 1.19793 9.09314 1.2728C9.12448 1.34766 9.14062 1.428 9.14062 1.50916C9.14062 1.59032 9.12448 1.67066 9.09314 1.74553C9.06179 1.82039 9.01587 1.88826 8.95805 1.94521L5.44085 5.39221C5.32346 5.50802 5.1652 5.57295 5.0003 5.57295C4.8354 5.57295 4.67714 5.50802 4.55975 5.39221L1.04255 1.94521C0.984724 1.88826 0.938804 1.82039 0.907459 1.74553C0.876115 1.67066 0.859973 1.59032 0.859973 1.50916C0.859973 1.428 0.876115 1.34766 0.907459 1.2728C0.938804 1.19793 0.984724 1.13006 1.04255 1.07311C1.15967 0.957143 1.31783 0.89209 1.48265 0.89209C1.64747 0.89209 1.80563 0.957143 1.92275 1.07311L4.99985 3.90001Z" fill="white"/>
</svg>
