<svg width="224" height="60" viewBox="0 0 224 60" fill="none" xmlns="http://www.w3.org/2000/svg">
<path d="M82.8883 15.7319H68.0957V38.5448H73.9607V20.4576H82.8883V15.7319ZM89.7959 34.96C86.4397 34.96 85.4297 34.0149 85.2016 31.7009H96.3449V30.43C96.3449 24.7268 94.1619 21.8589 88.3296 21.8589C82.432 21.8589 79.7603 24.7919 79.7603 30.43C79.7603 36.3939 82.5949 39.0011 88.9813 39.0011C91.1969 39.0011 93.5754 38.7078 96.117 38.1212L95.3675 34.1452C93.5754 34.6992 91.7183 34.96 89.7959 34.96ZM88.3296 25.6067C90.2193 25.6067 91.1969 26.5193 91.262 28.3442H85.2995C85.4949 26.5193 86.5051 25.6067 88.3296 25.6067ZM114.168 22.3152H108.955V28.2466H104.197V22.3152H98.9841V38.5448H104.197V32.2875H108.955V38.5448H114.168V22.3152ZM126.842 34.96C123.487 34.96 122.476 34.0149 122.248 31.7009H133.392V30.43C133.392 24.7268 131.209 21.8589 125.376 21.8589C119.479 21.8589 116.807 24.7919 116.807 30.43C116.807 36.3939 119.642 39.0011 126.028 39.0011C128.244 39.0011 130.622 38.7078 133.164 38.1212L132.414 34.1452C130.622 34.6992 128.765 34.96 126.842 34.96ZM125.376 25.6067C127.266 25.6067 128.244 26.5193 128.309 28.3442H122.346C122.542 26.5193 123.552 25.6067 125.376 25.6067ZM141.244 37.6974C142.254 38.1864 143.069 38.5122 143.72 38.7078C144.372 38.9033 145.122 39.0011 145.969 39.0011C150.27 39.0011 152.322 36.3939 152.322 30.43C152.322 24.4661 150.27 21.8589 145.969 21.8589C144.6 21.8589 142.971 22.3152 141.049 23.2602V22.3152H136.031V45.0628H141.244V37.6974ZM141.244 26.7798C142.417 26.1933 143.362 25.9 144.111 25.9C146.034 25.9 146.946 27.1385 146.946 30.43C146.946 33.7216 146.034 34.96 144.111 34.96C143.362 34.96 142.417 34.6667 141.244 34.08V26.7798ZM154.277 33.7867C154.277 37.0784 155.906 39.0011 159.165 39.0011C160.631 39.0011 162.13 38.5775 163.726 37.7628V38.5448H168.744V27.9533C168.744 24.0423 166.854 21.8589 161.641 21.8589C160.11 21.8589 157.992 22.1847 155.287 22.8367L156.004 27.0407C158.155 26.2911 159.849 25.9 161.12 25.9C162.847 25.9 163.531 26.454 163.531 28.0184V28.7353C162.26 28.605 161.283 28.5399 160.598 28.5399C156.069 28.5399 154.277 30.43 154.277 33.7867ZM161.413 32.0269C161.902 32.0269 162.619 32.092 163.531 32.2224V34.8623C162.651 35.2858 161.869 35.514 161.185 35.514C160.044 35.514 159.491 34.9274 159.491 33.7867C159.491 32.6135 160.142 32.0269 161.413 32.0269ZM171.937 38.5448H184.417L184.71 43.1075H189.174V34.5036H187.186V22.3152H181.973V34.5036H177.15V22.3152H171.937V38.5448ZM201.457 22.3152L198.134 27.7251C197.678 28.4746 197.091 29.5501 196.374 30.9514C196.407 30.0714 196.44 28.8656 196.44 27.3666V22.3152H191.226V38.5448H196.44L199.763 33.135C200.219 32.3853 200.806 31.3098 201.522 29.9085C201.49 30.7884 201.457 31.9942 201.457 33.4934V38.5448H206.671V22.3152H201.457ZM216.999 29.1916C215.403 29.1916 214.621 28.605 214.621 27.3991C214.621 26.1933 215.403 25.6067 216.999 25.6067C217.423 25.6067 218.009 25.6718 218.694 25.8023V29.1916H216.999ZM223.907 38.5448V22.7062C220.877 22.1522 218.465 21.8589 216.673 21.8589C211.558 21.8589 209.245 24.0099 209.245 27.4969C209.245 29.7457 210.19 31.3425 212.047 32.2551L208.723 38.1537L214.393 38.773L217.325 32.8417H218.694V38.5448H223.907Z" fill="#77B946"/>
<path fill-rule="evenodd" clip-rule="evenodd" d="M25.5448 50.1819C27.2311 47.924 28.7545 45.7701 30.4035 43.7166C31.5365 42.3062 32.9263 41.0991 34.0585 39.6879C36.8301 36.2336 39.8177 32.9343 41.8414 28.9314C43.5889 25.4762 44.5103 21.8511 44.0071 18.0026C43.6843 15.5383 42.7878 13.1907 41.3556 11.1373C41.0905 10.7593 40.0408 10.633 39.4754 10.7997C34.6758 12.216 31.2762 15.3117 29.057 19.7321C28.7118 20.4186 28.4982 21.1695 28.2239 21.8916C27.9191 22.6918 28.1186 22.9358 29.0293 22.8384C30.6488 22.6658 32.2834 22.6129 33.9129 22.5858C34.2971 22.5789 34.6836 22.878 35.0702 23.0371C34.7848 23.3215 34.4753 23.5865 34.217 23.895C33.2926 24.994 32.2902 26.0441 31.4902 27.2288C28.6134 31.4834 26.3566 36.0359 25.0672 41.0316C24.9051 41.6572 24.6154 42.2512 24.2225 42.8249C24.0751 37.6313 23.9723 32.4572 26.4527 27.3707C24.5329 27.3707 22.7874 27.3707 20.8299 27.3707C21.0515 25.9756 21.1155 24.7954 21.4414 23.6916C22.0073 21.774 22.5432 19.8083 23.4346 18.0343C25.5241 13.8743 28.5117 10.4364 32.9611 8.71731C36.6412 7.29725 40.4755 7.30592 44.1822 8.81666C48.5471 10.5964 51.7213 13.7007 53.8091 17.8821C55.5979 21.4626 56.5503 25.2785 56.533 29.2853C56.5078 35.2877 54.9436 40.867 51.2547 45.665C47.9244 49.9977 43.639 53.0857 38.3232 54.7092C35.6663 55.521 32.9722 56.0598 30.2222 55.977C22.0828 55.7359 15.3693 52.4716 10.203 46.175C7.62699 43.036 5.8394 39.4757 4.99898 35.5007C4.21973 31.8132 4.20115 28.1206 4.73131 24.3568C5.25714 20.622 6.45743 17.1927 8.47608 14.0738C12.2094 8.30666 17.6711 4.87058 24.1692 2.87498C29.0873 1.36424 34.0937 1.02862 39.1843 1.49531C39.3267 1.50775 39.474 1.47603 39.6832 1.20705C38.7001 0.958337 37.7293 0.595872 36.7298 0.484928C34.59 0.246831 32.4279 -0.0693646 30.2892 0.0134944C20.2862 0.398167 12.1292 4.51092 5.94725 12.3828C3.30289 15.7512 1.59409 19.573 0.68493 23.7514C-0.477226 29.0886 -0.177013 34.3573 1.71228 39.4681C3.33111 43.8457 5.70599 47.8111 9.04647 51.141C13.1792 55.2606 18.0907 58.0306 23.8317 59.1498C26.4669 59.6618 29.1943 60.0772 31.8599 59.9819C36.6692 59.8101 41.2274 58.5251 45.4416 56.0368C50.3777 53.1243 54.2457 49.2669 57.0324 44.267C58.3894 41.8309 59.4448 39.2743 60.0773 36.6036C60.8376 33.3981 61.0092 30.1211 60.7172 26.7902C60.3692 22.8374 59.2472 19.1786 57.3002 15.762C54.5494 10.9319 50.5385 7.56427 45.2342 5.77882C42.6511 4.91013 39.9892 4.34227 37.258 4.46956C27.5168 4.9227 18.8508 10.0421 15.4416 19.9519C14.1191 23.7986 13.8896 27.7746 14.7507 31.8719C15.7115 36.4428 17.6064 40.5102 20.2197 44.3164C21.7647 46.5674 23.6612 48.4831 25.5448 50.1819Z" fill="#77B946"/>
<path d="M43.224 7.86334C39.5168 6.35162 35.6825 6.34296 32.0033 7.76302C27.5534 9.48196 24.5657 12.921 22.4763 17.0801C21.5851 18.854 21.0492 20.8208 20.4831 22.7383C20.1577 23.8413 19.0851 26.9862 20.8303 27.3746C20.8828 27.0448 20.9261 26.7267 20.9666 26.4182C20.9666 26.4172 20.9666 26.4172 20.9666 26.4163C21.0033 26.1376 21.0377 25.8688 21.0729 25.6045C21.0962 25.4321 21.1206 25.2614 21.1465 25.0935C21.1517 25.0589 21.1566 25.0212 21.162 24.9865C21.1929 24.7937 21.2276 24.6067 21.2657 24.4216C21.2756 24.3696 21.2869 24.3185 21.2983 24.2673C21.3392 24.0823 21.3836 23.898 21.4357 23.7189C21.4379 23.7111 21.4394 23.7034 21.4416 23.6965C22.0071 21.779 22.5435 19.8133 23.4349 18.0384C25.5244 13.8792 28.5115 10.4404 32.9614 8.72141C34.8014 8.01089 36.6801 7.65794 38.5616 7.6715C40.4436 7.68505 42.329 8.06581 44.1825 8.8216C44.2543 8.85052 44.3237 8.88322 44.3955 8.91423C44.5869 8.99416 44.7786 9.0752 44.9656 9.161C45.1323 9.23813 45.2944 9.32015 45.4582 9.4012C45.545 9.44451 45.6345 9.48489 45.7213 9.52933C45.918 9.63049 46.1098 9.73752 46.3016 9.84455C46.3489 9.87152 46.398 9.89555 46.4452 9.92265C46.6574 10.0441 46.8646 10.1714 47.0709 10.3005C47.0939 10.315 47.118 10.3286 47.141 10.343C47.3611 10.4827 47.5759 10.6274 47.7888 10.7749C47.7957 10.7796 47.8033 10.7845 47.81 10.7902C48.4704 11.2512 49.0921 11.7545 49.6771 12.2972C47.919 10.3998 45.7773 8.90362 43.224 7.86334Z" fill="url(#paint0_linear_514_588)"/>
<path d="M163.014 13.8352H165.672V14.4698H163.593V19.1854H163.014V13.8352Z" fill="white"/>
<path d="M166.281 19.1854V13.8388H167.933C168.321 13.8388 168.608 13.8729 168.793 13.941C169.046 14.0334 169.248 14.2048 169.398 14.4552C169.549 14.7056 169.624 15.0132 169.624 15.3779C169.624 15.8593 169.502 16.252 169.256 16.5559C169.011 16.8598 168.586 17.0118 167.984 17.0118H166.86V19.1854H166.281ZM166.86 16.3808H167.994C168.352 16.3808 168.613 16.3006 168.778 16.1401C168.944 15.9772 169.026 15.7329 169.026 15.4071C169.026 15.1956 168.985 15.0144 168.902 14.8637C168.822 14.7129 168.724 14.6096 168.607 14.5537C168.493 14.4977 168.285 14.4698 167.984 14.4698H166.86V16.3808Z" fill="white"/>
<path d="M169.92 13.8388H170.503L171.936 17.1139L173.183 13.8388H173.763L172.118 17.9965C171.907 18.5265 171.734 18.8693 171.601 19.025C171.469 19.1806 171.288 19.2584 171.057 19.2584C170.899 19.2584 170.712 19.2158 170.496 19.1307V18.5253C170.651 18.6347 170.815 18.6894 170.988 18.6894C171.132 18.6894 171.254 18.6347 171.356 18.5253C171.458 18.4159 171.571 18.163 171.695 17.7667L169.92 13.8388Z" fill="white"/>
<path d="M174.853 19.1854H174.27V13.8388H177.712V19.1854H177.132V14.4661H174.853V19.1854Z" fill="white"/>
<path d="M179.272 19.1854H178.689V13.8388H182.131V19.1854H181.551V14.4661H179.272V19.1854Z" fill="white"/>
<path d="M182.609 19.1854L184.293 13.8388H184.917L186.711 19.1854H186.047L185.537 17.5661H183.706L183.225 19.1854H182.609ZM183.874 16.9899H185.358L184.902 15.5092C184.761 15.0545 184.658 14.685 184.592 14.4005C184.536 14.7433 184.457 15.0837 184.355 15.4217L183.874 16.9899Z" fill="white"/>
<path d="M188.888 13.8388H189.467V16.1803C189.735 16.1803 189.921 16.1183 190.025 15.9943C190.132 15.8703 190.271 15.5688 190.441 15.0898C190.57 14.7178 190.677 14.4564 190.762 14.3057C190.849 14.1549 190.965 14.0382 191.108 13.9556C191.254 13.8705 191.45 13.8279 191.695 13.8279C191.766 13.8279 191.838 13.8316 191.91 13.8388V14.4552L191.794 14.4516L191.663 14.4479C191.504 14.4479 191.379 14.4941 191.287 14.5865C191.195 14.6765 191.083 14.9184 190.951 15.3123C190.808 15.7523 190.685 16.0344 190.583 16.1584C190.484 16.2799 190.36 16.3772 190.211 16.4501C190.496 16.545 190.775 16.8635 191.05 17.4057L191.951 19.1854H191.232L190.499 17.7339C190.268 17.2744 190.084 16.9838 189.945 16.8623C189.807 16.7407 189.667 16.6799 189.526 16.6799C189.509 16.6799 189.489 16.6811 189.467 16.6835V19.1854H188.888V13.8388Z" fill="white"/>
<path d="M192.282 16.5814C192.282 15.6697 192.483 14.9694 192.884 14.4807C193.285 13.9896 193.785 13.744 194.383 13.744C194.769 13.744 195.122 13.8534 195.44 14.0723C195.758 14.2911 196.01 14.6096 196.195 15.0278C196.382 15.4436 196.476 15.9395 196.476 16.5158C196.476 17.3084 196.296 17.9539 195.936 18.4524C195.54 19.0019 195.021 19.2766 194.379 19.2766C193.732 19.2766 193.212 18.9946 192.818 18.4305C192.461 17.9199 192.282 17.3035 192.282 16.5814ZM192.88 16.5924C192.88 17.2513 193.025 17.7631 193.314 18.1278C193.606 18.4901 193.96 18.6712 194.375 18.6712C194.801 18.6712 195.157 18.4876 195.444 18.1205C195.733 17.7533 195.878 17.2136 195.878 16.5012C195.878 16.0417 195.803 15.6308 195.655 15.2685C195.541 14.9913 195.368 14.7701 195.137 14.6047C194.909 14.437 194.659 14.3531 194.386 14.3531C193.949 14.3531 193.588 14.5354 193.303 14.9001C193.021 15.2648 192.88 15.8289 192.88 16.5924Z" fill="white"/>
<path d="M197.198 19.1854V13.8388H198.069L199.108 17.6245L199.316 18.4159C199.367 18.219 199.445 17.9333 199.549 17.5588L200.6 13.8388H201.38V19.1854H200.822V14.7105L199.546 19.1854H199.024L197.755 14.6339V19.1854H197.198Z" fill="white"/>
<path d="M202.922 19.1854H202.339V13.8388H205.781V19.1854H205.201V14.4661H202.922V19.1854Z" fill="white"/>
<path d="M206.259 19.1854L207.943 13.8388H208.567L210.361 19.1854H209.697L209.187 17.5661H207.356L206.875 19.1854H206.259ZM207.524 16.9899H209.008L208.552 15.5092C208.411 15.0545 208.308 14.685 208.242 14.4005C208.186 14.7433 208.107 15.0837 208.005 15.4217L207.524 16.9899Z" fill="white"/>
<path d="M210.82 19.1854V13.8388H211.4V16.0344H213.679V13.8388H214.259V19.1854H213.679V16.6653H211.4V19.1854H210.82Z" fill="white"/>
<path d="M215.25 13.8388H215.775V18.0731L218.109 13.8388H218.692V19.1854H218.167V14.9621L215.83 19.1854H215.25V13.8388Z" fill="white"/>
<path d="M219.655 13.8388H220.18V18.0731L222.514 13.8388H223.097V19.1854H222.572V14.9621L220.235 19.1854H219.655V13.8388ZM221.978 12.5332H222.346C222.314 12.8468 222.22 13.0827 222.062 13.2407C221.904 13.3988 221.703 13.4778 221.46 13.4778C221.217 13.4778 221.016 13.3988 220.858 13.2407C220.703 13.0827 220.609 12.8468 220.578 12.5332H220.946C221.002 12.8614 221.168 13.0256 221.445 13.0256C221.601 13.0256 221.721 12.9867 221.806 12.9088C221.891 12.831 221.949 12.7058 221.978 12.5332Z" fill="white"/>
<defs>
<linearGradient id="paint0_linear_514_588" x1="34.7677" y1="6.71337" x2="34.7677" y2="27.3746" gradientUnits="userSpaceOnUse">
<stop stop-color="#6FBD85"/>
<stop offset="0.501961" stop-color="#009847"/>
<stop offset="1" stop-color="#008945"/>
</linearGradient>
</defs>
</svg>
