<svg width="32" height="32" viewBox="0 0 32 32" fill="none" xmlns="http://www.w3.org/2000/svg">
<path fill-rule="evenodd" clip-rule="evenodd" d="M8 0C3.58172 0 0 3.58172 0 8V24C0 28.4183 3.58172 32 8 32H24C28.4183 32 32 28.4183 32 24V8C32 3.58172 28.4183 0 24 0H8ZM11.2454 11.6176C11.2454 14.1622 13.3977 16.3127 15.9873 16.3127L16.0029 16.3137C17.2523 16.3173 18.4521 15.8247 19.3386 14.9441C20.225 14.0636 20.7255 12.867 20.7301 11.6176C20.7301 8.984 18.6667 6.8335 15.9882 6.8335C13.3977 6.8335 11.2454 8.98491 11.2454 11.6176ZM14.0568 11.6185C14.0568 10.5203 14.8909 9.59908 15.9873 9.59908C17.1294 9.59908 17.9205 10.5194 17.9196 11.6185C17.9196 12.7148 17.1294 13.549 15.9882 13.549C14.8909 13.549 14.0568 12.7148 14.0568 11.6185ZM20.555 22.8092L17.8765 20.2205C18.8867 19.9134 19.8529 19.5183 20.6861 18.9912C21.3012 18.6392 21.4781 17.7629 21.0821 17.1038C20.687 16.4457 19.8538 16.2706 19.1507 16.7097C18.1987 17.2907 17.1049 17.598 15.9896 17.598C14.8742 17.598 13.7805 17.2907 12.8284 16.7097C12.1254 16.2706 11.3352 16.4457 10.8961 17.1038C10.545 17.7629 10.6761 18.6402 11.3352 18.9912C12.2166 19.5152 13.1598 19.9275 14.1429 20.2187L11.4204 22.8082C10.8934 23.3784 10.8934 24.2126 11.4204 24.7397C11.7284 25.0018 12.0795 25.1338 12.3866 25.1338C12.7826 25.1338 13.1346 25.0027 13.3977 24.7397L15.9882 22.1061L18.6667 24.7397C19.1058 25.3089 19.9849 25.3089 20.555 24.7397C21.0821 24.2126 21.0821 23.3784 20.555 22.8092Z" fill="#77B946"/>
</svg>
