<svg width="13" height="16" viewBox="0 0 13 16" fill="none" xmlns="http://www.w3.org/2000/svg">
<path fill-rule="evenodd" clip-rule="evenodd" d="M5.96635 15.919L6.22235 15.5559L5.96635 15.919ZM6.47836 15.919L6.48014 15.9181L6.48458 15.915L6.49791 15.9048L6.55036 15.867C6.59481 15.8341 6.65969 15.7861 6.74147 15.723C6.90503 15.5977 7.13704 15.4132 7.41393 15.1763C8.1408 14.555 8.82046 13.8806 9.44731 13.1585C10.9176 11.458 12.4447 9.03085 12.4447 6.25613C12.4447 4.59832 11.7896 3.00717 10.6233 1.83382C10.0469 1.25309 9.36129 0.792098 8.60599 0.477377C7.85069 0.162655 7.0406 0.000417047 6.22235 0C5.40414 0.000358827 4.59407 0.162527 3.83877 0.477172C3.08347 0.791816 2.39785 1.25272 1.82137 1.83337C0.65398 3.00941 -0.00078358 4.59951 7.03756e-07 6.25657C7.03756e-07 9.03085 1.52714 11.458 2.9974 13.1585C3.62424 13.8806 4.30391 14.555 5.03077 15.1763C5.30811 15.4132 5.53967 15.5977 5.70323 15.723C5.78345 15.7848 5.8645 15.8456 5.94635 15.9052L5.96057 15.915L5.96457 15.9181L5.96635 15.919C6.11968 16.027 6.32502 16.027 6.47836 15.919ZM6.22235 15.5559L6.47836 15.919L6.22235 15.5559ZM8.44462 6.22235C8.44462 6.81173 8.21049 7.37698 7.79373 7.79373C7.37698 8.21049 6.81173 8.44462 6.22235 8.44462C5.63297 8.44462 5.06773 8.21049 4.65097 7.79373C4.23422 7.37698 4.00008 6.81173 4.00008 6.22235C4.00008 5.63297 4.23422 5.06773 4.65097 4.65097C5.06773 4.23421 5.63297 4.00008 6.22235 4.00008C6.81173 4.00008 7.37698 4.23421 7.79373 4.65097C8.21049 5.06773 8.44462 5.63297 8.44462 6.22235Z" fill="#77B946"/>
</svg>
