<svg width="32" height="32" viewBox="0 0 32 32" fill="none" xmlns="http://www.w3.org/2000/svg">
<path fill-rule="evenodd" clip-rule="evenodd" d="M8 0C3.58172 0 0 3.58172 0 8V24C0 28.4183 3.58172 32 8 32H24C28.4183 32 32 28.4183 32 24V8C32 3.58172 28.4183 0 24 0H8ZM21.4529 21.6745L23.8294 10.4667V10.4673C24.0404 9.47894 23.4745 9.0925 22.8276 9.33494L8.8568 14.7175C7.90392 15.0904 7.91798 15.6248 8.6948 15.8673L12.2667 16.9855L20.5635 11.761C20.9534 11.5006 21.3089 11.6451 21.0169 11.905L14.3057 17.9693L14.0453 21.6571C14.4182 21.6571 14.5797 21.4956 14.7732 21.3021L16.5203 19.6214L20.1417 22.2899C20.806 22.6623 21.2734 22.4654 21.4529 21.6745Z" fill="#77B946"/>
</svg>
